<svg xmlns="http://www.w3.org/2000/svg" width="251.648" height="77.458" viewBox="0 0 66.582 20.494"><path d="M95.724 135.266c-.738 0-1.559.225-2.256.512.882-1.25 1.19-2.277.902-3.036-.205-.533-.82-1.19-2.564-1.19-3.016 0-5.518 2.134-5.518 3.2 0 .616.266.965.39 1.088.06.082.163.103.266.103.082-.02.164-.103.205-.185.205-.472 1.395-2.872 5.252-3.057.328 0 .554.041.677.164.04.02.082.103.082.247 0 1.107-1.251 2.44-2.298 3.405.062-.144.123-.267.164-.39.575-1.333.821-1.887.821-2.133 0-.657-.615-.964-.841-.964-.226 0-.37 0-2.339 4.84-.964 2.34-1.908 4.822-1.99 5.109-.02.041-.02.082-.04.123-1.888 1.067-3.427 1.723-4.309 1.805-.123 0-.225.082-.287.185a.315.315 0 0 0 0 .328c.062.164.349.657.862.657 1.354 0 5.005-1.908 7.918-3.795 1.847-1.19 6.114-4.165 6.114-6.011 0-.657-.616-1.005-1.21-1.005zm-5.908 3.733c.02.041.041.062.062.103.102.102.246.143.39.061.122-.061.287-.164.492-.266 2.687-1.518 4.328-2.319 4.882-2.4-.37.553-2.318 2.277-5.477 4.41-.472.308-.944.615-1.395.903.349-.965.697-1.929 1.046-2.81zm14.463.226a.253.253 0 0 0-.205-.103.226.226 0 0 0-.205.123c-.288.595-1.272 1.683-2.093 2.483.328-1.354.841-2.954 1.149-3.94.246-.82.287-.943.287-1.004 0-.329-.78-.923-1.19-.923-.061 0-.123 0-.225.205v.02a3.344 3.344 0 0 0-.226.595c-.739 1.56-3.16 5.498-4.452 5.765.062-1.58 1.129-4.678 2.134-5.683l.123-.123-.082-.205-.041-.041c-.41-.41-1.293-.739-1.682-.349-.78.78-1.908 5.293-1.908 6.75 0 .471.964 1.169 1.272 1.169 1.066 0 2.359-1.129 3.364-2.318a4.922 4.922 0 0 0-.103.82c0 .718.308 1.108.595 1.293a.867.867 0 0 0 .493.184h.061c.718 0 2.872-3.097 3.118-3.733.123-.308-.04-.698-.184-.985zm6.995-9.54h-.082c-1.333.062-7.98 4.596-7.98 6.176 0 .697.903 1.333 1.416 1.415.082 0 .164 0 .266-.02.308-.103 1.416-.41 2.257-.41 1.149 0 3.056.163 3.056 1.353 0 1.21-3.097 4.883-5.97 4.883-.143 0-.553 0-.635-.534a.305.305 0 0 0-.267-.266.317.317 0 0 0-.328.164c-.226.43-.575 1.272-.205 1.887.246.41.738.615 1.497.615 2.462 0 7.303-3.466 7.303-6.42 0-1.416-.78-3.119-4.513-3.119a9.21 9.21 0 0 0-1.58.144c.944-1.19 2.175-2.195 3.303-2.975-.225.493-.39.985-.39 1.477 0 .841.473 1.293.842 1.518.061.02.102.041.164.041.061 0 .123-.02.164-.061a.264.264 0 0 0 .123-.308 3.031 3.031 0 0 1-.061-.554c0-1.374 1.374-2.708 2.195-3.528.43-.41.595-.595.595-.718 0-.205-.78-.698-1.17-.76zm7.262 9.56a.215.215 0 0 0-.184-.102c-.103 0-.164.04-.205.123-.247.492-.965 1.333-1.683 2.051.616-1.64 1.539-3.549 2.134-4.144.04-.04.082-.102.082-.164.02-.061.041-.102.02-.164-.102-.37-.882-.984-1.169-.984-.738 0-2.564 1.128-3.857 2.195.021-.083.041-.165.062-.226.657-1.99 1.334-4.02 1.764-5.683.041-.246.02-.45-.102-.656-.308-.472-1.026-.616-1.067-.636h-.02a.233.233 0 0 0-.165.061c-.04.041-.082.103-.082.165-.04.8-.902 3.426-1.743 5.97-.944 2.892-1.929 5.887-1.929 6.83 0 .883.698 1.293 1.354 1.293a.25.25 0 0 0 .205-.103.2.2 0 0 0 .02-.184c-.184-.472.103-1.744.575-3.324.308-.635 2.236-2.646 3.652-3.713-.862 1.621-1.6 3.94-1.6 5.088 0 .841.82 1.005.964 1.005h.04c.042 0 .103 0 .144-.02.842-.329 2.75-3.098 2.996-3.693.102-.308-.041-.697-.206-.985zm6.606.041a.242.242 0 0 0-.185-.184c-.082-.02-.164 0-.246.061-.964.882-4.349 3.036-5.457 3.118l-.02-.02c.02-.533.185-1.21.43-1.887.39.164.74.287 1.006.287 1.395 0 3.282-2.175 3.282-2.462 0-.185-.02-.349-.061-.492v-.02c-.164-.637-1.006-1.827-1.908-1.827-1.58 0-2.729 1.334-3.447 2.934a5.752 5.752 0 0 1-.82-.349c-.123-.061-.246-.04-.328.062a.25.25 0 0 0 0 .328c.164.205.471.472.84.718-.41 1.149-.615 2.36-.615 3.303 0 .43.923 1.087 1.19 1.087 1.128 0 3.22-1.374 3.836-1.805.944-.657 2.565-1.908 2.565-2.42 0-.165-.041-.33-.062-.432zm-5.006.02c.554-1.086 1.293-1.948 1.97-1.948.185 0 .37.062.574.144-.656.984-1.538 1.866-2.133 1.866a1.8 1.8 0 0 1-.41-.061zm11.201-.02a.242.242 0 0 0-.184-.184c-.082-.02-.164 0-.246.061-.965.882-4.35 3.036-5.457 3.118l-.02-.02c.02-.533.184-1.21.43-1.887.39.164.739.287 1.005.287 1.395 0 3.283-2.175 3.283-2.462 0-.185-.02-.349-.062-.492v-.02c-.164-.637-1.005-1.827-1.908-1.827-1.58 0-2.728 1.334-3.446 2.934a5.752 5.752 0 0 1-.82-.349c-.124-.061-.247-.04-.329.062a.25.25 0 0 0 0 .328c.164.205.472.472.841.718-.41 1.149-.615 2.36-.615 3.303 0 .43.923 1.087 1.19 1.087 1.128 0 3.22-1.374 3.836-1.805.943-.657 2.564-1.908 2.564-2.42 0-.165-.041-.33-.061-.432zm-5.005.02c.554-1.086 1.292-1.948 1.97-1.948.184 0 .369.062.574.144-.657.984-1.539 1.866-2.134 1.866a1.8 1.8 0 0 1-.41-.061zm14.73-5.661a.332.332 0 0 0-.144-.082.16.16 0 0 0-.164.04c-.698.432-2.565 1.006-4.39 1.58-2.072.636-4.206 1.313-4.986 1.867-.718.513-.656 1.313-.287 1.847.041.04.123.102.205.102.082 0 .144-.04.165-.082.492-.738 2.605-1.395 5.046-2.154a.292.292 0 0 1 .123-.041c-.84.82-1.97 1.949-3.118 3.118-4.575 4.636-4.575 5.15-4.575 5.354 0 .308.082.575.164.8.082.267.226.575.472.821a.59.59 0 0 0 .246.041c.472 0 1.58-.287 3.385-.738 2.38-.636 5.355-1.416 6.38-1.17a.25.25 0 0 0 .185-.082.154.154 0 0 0 0-.184c-.287-.493-.944-1.272-2.072-1.129-1.005.144-4.431.882-6.667 1.375 1.682-1.847 5.046-5.088 9.642-9.252.123-.103.184-.164.205-.185l.43-.39a.247.247 0 0 0 .103-.102.49.49 0 0 0 .123-.226c.103-.451-.39-1.026-.472-1.128zm7.138 6.072-.02-.02-.041-.02a.227.227 0 0 0-.287.04 18.588 18.588 0 0 1-1.765 1.539c.636-2.318.985-4.206.985-4.267 0-.37-.841-1.108-1.17-1.108-.081 0-.143.02-.184.061a.334.334 0 0 0-.061.124s0 .04-.02.082c-.206.82-3.16 5.99-4.658 6.298.062-1.58 1.129-4.678 2.134-5.683l.123-.123-.082-.205-.041-.041c-.41-.41-1.292-.739-1.682-.349-.78.78-1.908 5.293-1.908 6.75 0 .471.964 1.169 1.272 1.169 1.19 0 2.646-1.395 3.672-2.729a27.046 27.046 0 0 1-.492 1.56 73.08 73.08 0 0 1-1.888 1.23c-2.01 1.313-3.59 2.339-4 3.18-.144.287-.123.698-.02 1.026.205.697 1.19 1.949 2.584 1.949 1.99 0 3.57-3.18 4.677-6.421 1.15-.718 2.216-1.477 2.955-2.237.697-.697-.062-1.764-.083-1.805zm-5.149 5.437c-.882 2.01-1.887 3.549-2.892 3.549-.431 0-.882-.39-1.19-.76.574-.717 2.256-1.702 3.898-2.687.061-.04.123-.061.184-.102z" aria-label="BuSheeZy" style="font-size:20.5145px;font-family:&quot;Jump Streets&quot;;-inkscape-font-specification:&quot;Jump Streets&quot;;text-align:center;text-anchor:middle;stroke-width:.240403" transform="translate(-81.995 -129.686)"/></svg>